<svg width="32" height="32" viewBox="0 0 32 32" fill="none" xmlns="http://www.w3.org/2000/svg">
  <rect width="32" height="32" rx="8" fill="#3570E9"/>
  <path d="M16 6C14.3431 6 13 7.34315 13 9V16C13 17.6569 14.3431 19 16 19C17.6569 19 19 17.6569 19 16V9C19 7.34315 17.6569 6 16 6Z" fill="white"/>
  <path d="M9 16C9 15.4477 8.55228 15 8 15C7.44772 15 7 15.4477 7 16C7 20.4183 10.5817 24 15 24H17C21.4183 24 25 20.4183 25 16C25 15.4477 24.5523 15 24 15C23.4477 15 23 15.4477 23 16C23 19.3137 20.3137 22 17 22H15C11.6863 22 9 19.3137 9 16Z" fill="white"/>
  <path d="M13 25C13 24.4477 12.5523 24 12 24C11.4477 24 11 24.4477 11 25V26C11 26.5523 11.4477 27 12 27C12.5523 27 13 26.5523 13 26V25Z" fill="white"/>
  <path d="M16 24C15.4477 24 15 24.4477 15 25V26C15 26.5523 15.4477 27 16 27C16.5523 27 17 26.5523 17 26V25C17 24.4477 16.5523 24 16 24Z" fill="white"/>
  <path d="M20 24C19.4477 24 19 24.4477 19 25V26C19 26.5523 19.4477 27 20 27C20.5523 27 21 26.5523 21 26V25C21 24.4477 20.5523 24 20 24Z" fill="white"/>
</svg>